<svg id="logosandtypes_com" data-name="logosandtypes com" xmlns="http://www.w3.org/2000/svg" viewBox="0 0 150 150"><defs><style>.cls-1{fill:none;}.cls-2{fill-rule:evenodd;}</style></defs><g id="Layer_3" data-name="Layer 3"><path id="Layer_3-2" data-name="Layer 3" class="cls-1" d="M0,.2H150v150H0Z" transform="translate(0 -0.2)"/></g><path class="cls-2" d="M19.18,23.33a7.46,7.46,0,0,0,7.5,7.42H88.84c20.52-1.39,33.1,24.78,17.5,38.65q-6.87,5.88-17.5,5.87h-27a7.43,7.43,0,1,0,0,14.85c.94,0,30.07,0,29.83,0l26.87,42.66a7.92,7.92,0,0,0,7,3.87c6.85.23,10-6.88,6.25-12.37l-23.9-38c37.3-17.51,21.54-71.94-19.07-70.34H26.68A7.47,7.47,0,0,0,19.18,23.33Z" transform="translate(0 -0.2)"/></svg>